<svg width="75" height="70" viewBox="0 0 75 70" fill="none" xmlns="http://www.w3.org/2000/svg">
<path d="M49.5833 59.0625C49.5833 65.0934 44.1628 70 37.5 70C30.8373 70 25.4167 65.0934 25.4167 59.0625C25.4167 53.0316 30.8373 48.125 37.5 48.125C44.1628 48.125 49.5833 53.0316 49.5833 59.0625ZM26.8153 3.44518L28.8695 40.6327C28.966 42.379 30.5583 43.75 32.49 43.75H42.5101C44.4417 43.75 46.034 42.379 46.1305 40.6327L48.1847 3.44518C48.2882 1.5709 46.6374 0 44.5642 0H30.4358C28.3626 0 26.7119 1.5709 26.8153 3.44518Z" fill="#313131"/>
</svg>
