<svg width="70" height="70" viewBox="0 0 70 70" fill="none" xmlns="http://www.w3.org/2000/svg">
<circle cx="35" cy="46" r="15" fill="white"/>
<g clip-path="url(#clip0)">
<path d="M30.5925 17.876L21.1411 2.12461C20.7525 1.47664 20.2027 0.940377 19.5452 0.568044C18.8878 0.195712 18.1451 9.27672e-06 17.3895 0H2.19324C0.422734 0 -0.613594 1.99199 0.400859 3.44258L15.6136 25.1754C19.6768 21.3787 24.8448 18.7729 30.5925 17.876ZM67.81 0H52.6137C51.077 0 49.6524 0.806641 48.8622 2.12461L39.4108 17.876C45.1585 18.7729 50.3264 21.3787 54.3897 25.174L69.6024 3.44258C70.6169 1.99199 69.5805 0 67.81 0ZM35.0016 21.875C21.7126 21.875 10.9391 32.6484 10.9391 45.9375C10.9391 59.2266 21.7126 70 35.0016 70C48.2907 70 59.0641 59.2266 59.0641 45.9375C59.0641 32.6484 48.2907 21.875 35.0016 21.875ZM47.6509 43.3754L42.4651 48.4285L43.6915 55.568C43.9102 56.8477 42.5622 57.8252 41.4151 57.2209L35.0016 53.8508L28.5895 57.2209C27.4411 57.8293 26.0944 56.8463 26.3132 55.568L27.5395 48.4285L22.3538 43.3754C21.4214 42.4676 21.9368 40.883 23.222 40.6971L30.3901 39.6525L33.5934 33.1557C33.8819 32.5705 34.4397 32.282 34.9989 32.282C35.5608 32.282 36.1227 32.5746 36.4112 33.1557L39.6145 39.6525L46.7827 40.6971C48.0678 40.883 48.5833 42.4676 47.6509 43.3754Z" fill="#313131"/>
</g>
<defs>
<clipPath id="clip0">
<rect width="70" height="70" fill="white"/>
</clipPath>
</defs>
</svg>
