<svg width="75" height="70" viewBox="0 0 75 70" fill="none" xmlns="http://www.w3.org/2000/svg">
<circle cx="37" cy="46" r="15" fill="white"/>
<g clip-path="url(#clip0)">
<path d="M32.5925 17.876L23.1411 2.12461C22.7525 1.47664 22.2027 0.940377 21.5452 0.568044C20.8878 0.195712 20.1451 9.27672e-06 19.3895 0H4.19324C2.42273 0 1.38641 1.99199 2.40086 3.44258L17.6136 25.1754C21.6768 21.3787 26.8448 18.7729 32.5925 17.876ZM69.81 0H54.6137C53.077 0 51.6524 0.806641 50.8622 2.12461L41.4108 17.876C47.1585 18.7729 52.3264 21.3787 56.3897 25.174L71.6024 3.44258C72.6169 1.99199 71.5805 0 69.81 0ZM37.0016 21.875C23.7126 21.875 12.9391 32.6484 12.9391 45.9375C12.9391 59.2266 23.7126 70 37.0016 70C50.2907 70 61.0641 59.2266 61.0641 45.9375C61.0641 32.6484 50.2907 21.875 37.0016 21.875ZM49.6509 43.3754L44.4651 48.4285L45.6915 55.568C45.9102 56.8477 44.5622 57.8252 43.4151 57.2209L37.0016 53.8508L30.5895 57.2209C29.4411 57.8293 28.0944 56.8463 28.3132 55.568L29.5395 48.4285L24.3538 43.3754C23.4214 42.4676 23.9368 40.883 25.222 40.6971L32.3901 39.6525L35.5934 33.1557C35.8819 32.5705 36.4397 32.282 36.9989 32.282C37.5608 32.282 38.1227 32.5746 38.4112 33.1557L41.6145 39.6525L48.7827 40.6971C50.0678 40.883 50.5833 42.4676 49.6509 43.3754V43.3754Z" fill="#313131"/>
</g>
<defs>
<clipPath id="clip0">
<rect width="70" height="70" fill="white" transform="translate(2)"/>
</clipPath>
</defs>
</svg>
