<svg width="75" height="70" viewBox="0 0 75 70" fill="none" xmlns="http://www.w3.org/2000/svg">
<g clip-path="url(#clip0)">
<path d="M36.5061 20.2699L12.4996 41.0307V63.4375C12.4996 64.0177 12.7191 64.5741 13.1098 64.9843C13.5005 65.3946 14.0304 65.625 14.5829 65.625L29.174 65.5854C29.7248 65.5825 30.252 65.3507 30.6404 64.9408C31.0289 64.5309 31.2469 63.9761 31.2469 63.3979V50.3125C31.2469 49.7323 31.4664 49.1759 31.8571 48.7657C32.2478 48.3555 32.7777 48.125 33.3303 48.125H41.6636C42.2161 48.125 42.746 48.3555 43.1367 48.7657C43.5274 49.1759 43.7469 49.7323 43.7469 50.3125V63.3883C43.7461 63.6761 43.7993 63.9613 43.9036 64.2275C44.0079 64.4937 44.1613 64.7357 44.3548 64.9395C44.5484 65.1434 44.7783 65.3051 45.0315 65.4155C45.2847 65.5258 45.5561 65.5826 45.8303 65.5826L60.4162 65.625C60.9687 65.625 61.4986 65.3946 61.8893 64.9843C62.28 64.5741 62.4995 64.0177 62.4995 63.4375V41.0156L38.4982 20.2699C38.2161 20.0311 37.8646 19.9009 37.5021 19.9009C37.1397 19.9009 36.7882 20.0311 36.5061 20.2699ZM74.4266 34.3807L63.5412 24.9594V6.02245C63.5412 5.58733 63.3766 5.17003 63.0835 4.86235C62.7905 4.55467 62.3931 4.38182 61.9787 4.38182H54.687C54.2726 4.38182 53.8752 4.55467 53.5822 4.86235C53.2891 5.17003 53.1245 5.58733 53.1245 6.02245V15.9496L41.467 5.87889C40.3483 4.91226 38.9444 4.38375 37.4956 4.38375C36.0468 4.38375 34.643 4.91226 33.5243 5.87889L0.56469 34.3807C0.406471 34.518 0.275569 34.6867 0.179465 34.8771C0.0833612 35.0676 0.0239379 35.276 0.00459081 35.4906C-0.0147563 35.7052 0.00635188 35.9217 0.0667093 36.1277C0.127067 36.3337 0.22549 36.5252 0.356357 36.6912L3.67667 40.9295C3.80717 41.0961 3.9677 41.2341 4.14906 41.3355C4.33041 41.4369 4.52904 41.4997 4.73355 41.5205C4.93807 41.5411 5.14447 41.5193 5.34093 41.4561C5.5374 41.393 5.72007 41.2897 5.87849 41.1524L36.5061 14.6644C36.7882 14.4256 37.1397 14.2954 37.5021 14.2954C37.8646 14.2954 38.2161 14.4256 38.4982 14.6644L69.1271 41.1524C69.2852 41.2898 69.4676 41.3931 69.6638 41.4565C69.86 41.5199 70.0662 41.542 70.2705 41.5217C70.4749 41.5014 70.6734 41.439 70.8548 41.3381C71.0362 41.2372 71.1968 41.0997 71.3276 40.9336L74.6479 36.6953C74.7787 36.5283 74.8767 36.3358 74.9363 36.1289C74.996 35.922 75.0161 35.7048 74.9955 35.4897C74.9749 35.2746 74.9141 35.0659 74.8164 34.8756C74.7188 34.6852 74.5863 34.517 74.4266 34.3807Z" fill="#313131"/>
</g>
<defs>
<clipPath id="clip0">
<rect width="75" height="70" fill="white"/>
</clipPath>
</defs>
</svg>
