<svg width="98" height="70" viewBox="0 0 98 70" fill="none" xmlns="http://www.w3.org/2000/svg">
<rect y="28" width="30" height="42" fill="#313131"/>
<rect x="34" y="7" width="30" height="63" fill="#313131"/>
<rect x="68" y="44" width="30" height="26" fill="#313131"/>
<path d="M48.432 16.144L42.06 19.672V15.244L49.44 10.636H53.688V34H48.432V16.144Z" fill="white"/>
<path d="M9.392 45.448C9.392 44.584 9.632 43.832 10.112 43.192C10.592 42.552 11.216 42.064 11.984 41.728C12.592 41.456 13.304 41.184 14.12 40.912C14.936 40.64 15.568 40.352 16.016 40.048C16.464 39.744 16.688 39.384 16.688 38.968V36.976C16.688 36.48 16.488 36.152 16.088 35.992C15.656 35.816 14.984 35.728 14.072 35.728C12.968 35.728 11.512 35.928 9.704 36.328V33.688C11.304 33.352 12.976 33.184 14.72 33.184C16.608 33.184 18.008 33.472 18.92 34.048C19.848 34.624 20.312 35.584 20.312 36.928V39.088C20.312 39.904 20.064 40.616 19.568 41.224C19.088 41.816 18.464 42.264 17.696 42.568C16.976 42.872 16.24 43.144 15.488 43.384C14.672 43.672 14.024 43.992 13.544 44.344C13.08 44.696 12.848 45.112 12.848 45.592V46.384H20.336V49H9.392V45.448Z" fill="white"/>
<path d="M83.36 64.24C82.016 64.24 80.272 64.12 78.128 63.88V61.096L78.896 61.24C79.2 61.304 79.368 61.344 79.4 61.36L80.216 61.504C80.408 61.536 80.816 61.584 81.44 61.648C81.92 61.696 82.408 61.72 82.904 61.72C83.832 61.72 84.472 61.608 84.824 61.384C85.192 61.16 85.376 60.736 85.376 60.112V58.312C85.376 57.56 84.568 57.184 82.952 57.184H80.12V54.784H82.952C84.2 54.784 84.824 54.328 84.824 53.416V51.904C84.824 51.568 84.76 51.312 84.632 51.136C84.504 50.944 84.272 50.808 83.936 50.728C83.616 50.648 83.136 50.608 82.496 50.608C81.584 50.608 80.176 50.704 78.272 50.896V48.4C80.448 48.256 81.984 48.184 82.88 48.184C84.832 48.184 86.24 48.408 87.104 48.856C87.984 49.304 88.424 50.096 88.424 51.232V53.8C88.424 54.264 88.28 54.664 87.992 55C87.72 55.32 87.368 55.536 86.936 55.648C88.344 56.144 89.048 56.92 89.048 57.976V60.52C89.048 61.848 88.592 62.8 87.68 63.376C86.768 63.952 85.328 64.24 83.36 64.24Z" fill="white"/>
</svg>
